# xmcd
#
# Track frame offsets:
#	150
#	9356
#	15937
#	22257
#	30986
#	39202
#	47830
#	56674
#	64999
#	74619
#	82690
#	89481
#	94943
#	104809
#	110540
#
# Disc length: 1548 seconds
#
# Revision: 0
# Processed by: cddbd v1.5.2PL0 Copyright (c) Steve Scherf et al.
# Submitted via: audiograbber 1.83.01
#
DISCID=be060a0f
DTITLE=Alexander Wörner - Alphornmelodien
DYEAR=2009
DGENRE=Folklore
TTITLE0=Unter dem Sternenzelt
TTITLE1=Lorenz-Choral
TTITLE2=Im Märchenwald
TTITLE3=Auf dem Breitenberg
TTITLE4=Elke-Polka
TTITLE5=Lied der Liebe
TTITLE6=Deinenbach-Blues
TTITLE7=Gebet
TTITLE8=Im Morgenrot
TTITLE9=Für Sandra
TTITLE10=Morgens in den Bergen
TTITLE11=Sonntagmorgen
TTITLE12=Sommernachtstraum
TTITLE13=Auf geht's
TTITLE14=Schorschi-Polka
EXTD=
EXTT0=
EXTT1=
EXTT2=
EXTT3=
EXTT4=
EXTT5=
EXTT6=
EXTT7=
EXTT8=
EXTT9=
EXTT10=
EXTT11=
EXTT12=
EXTT13=
EXTT14=
PLAYORDER=
